<?xml version="1.0" encoding="utf-8"?>
<!-- Generator: Adobe Illustrator 25.2.1, SVG Export Plug-In . SVG Version: 6.00 Build 0)  -->
<svg version="1.1" 
     xmlns="http://www.w3.org/2000/svg"
     xmlns:sodipodi="http://sodipodi.sourceforge.net/DTD/sodipodi-0.dtd"
     xmlns:xlink="http://www.w3.org/1999/xlink"
     x="0px" y="0px" viewBox="0 0 166.6 31" 
     style="enable-background:new 0 0 166.6 31;" xml:space="preserve">
<style type="text/css">
	.st0{fill:url(#rect955_1_);}
</style>
<sodipodi:namedview  bordercolor="#666666" borderopacity="1.0" gridtolerance="1" guidetolerance="1" id="base" objecttolerance="1" pagecolor="#ffffff" showgrid="false" showguides="false" units="px">
	</sodipodi:namedview>
<g id="_x23_ffffffff" transform="translate(0,-1089)">
</g>
<g id="_x23_2acbffff-4" transform="matrix(0.74035173,0,0,0.75447038,-840.95699,-775.15387)">
</g>
<linearGradient id="rect955_1_" gradientUnits="userSpaceOnUse" x1="4739.1777" y1="-6400.1333" x2="4430.689" y2="-6395.8784" gradientTransform="matrix(9.675676e-02 0 0 -9.675676e-02 -426.0591 -604.9448)">
	<stop  offset="0" style="stop-color:#3E82F4"/>
	<stop  offset="1" style="stop-color:#93DCF7"/>
</linearGradient>
<path id="rect955" class="st0" d="M19.7,4.5c-2.9,0-5.6,1.6-7,4.1c-0.6-0.3-1.3-0.4-1.9-0.4c-2.2,0-4,1.6-4.4,3.7
	c-2.3,0.9-3.7,3.2-3.7,5.6c0,3.4,2.7,6.1,6.1,6.1c0.3,0,0.5,0,0.8-0.1h16.9c0.1,0,0.2,0,0.3,0c0.1,0,0.2,0,0.3,0h0.4v0
	c2.9-0.3,5-2.8,5-5.7v0c0-2.7-1.9-5.1-4.6-5.6C27.6,7.9,24,4.5,19.7,4.5z"/>
<g>
	<path d="M48.4,23V12.5h-0.1l-4.3,10.4h-1.8L38,12.5h-0.1V23h-2.4V8.2h3.1l4.5,11.2h0.1l4.5-11.2h3.1V23H48.4z"/>
	<path d="M52.5,19.9c0-1.9,1.5-3.1,4.1-3.2l2.9-0.2v-0.8c0-1.1-0.8-1.8-2-1.8c-1.2,0-2,0.6-2.1,1.5h-2.4c0.1-2,1.8-3.5,4.6-3.5
		c2.7,0,4.4,1.4,4.4,3.6V23h-2.5v-1.7h-0.1c-0.6,1.2-2,1.9-3.4,1.9C54,23.2,52.5,21.9,52.5,19.9z M59.5,19v-0.8L57,18.3
		c-1.2,0.1-1.9,0.6-1.9,1.5c0,0.9,0.7,1.5,1.8,1.5C58.3,21.2,59.5,20.3,59.5,19z"/>
	<path d="M64.1,12.1h2.5V14h0.1c0.4-1.3,1.3-2.1,2.6-2.1c0.3,0,0.6,0.1,0.8,0.1v2.3c-0.2-0.1-0.6-0.1-1-0.1c-1.4,0-2.3,0.9-2.3,2.5
		V23h-2.6V12.1z"/>
	<path d="M74.5,9.6v2.5h2.1v2h-2.1v5.6c0,0.9,0.4,1.3,1.3,1.3c0.2,0,0.6,0,0.7-0.1v1.9c-0.3,0.1-0.8,0.1-1.3,0.1
		c-2.3,0-3.3-0.8-3.3-2.9v-6h-1.6v-2H72V9.6H74.5z"/>
	<path d="M78.2,9.3c0-0.8,0.6-1.4,1.4-1.4c0.8,0,1.4,0.6,1.4,1.4c0,0.8-0.6,1.4-1.4,1.4C78.9,10.7,78.2,10.1,78.2,9.3z M78.4,12.1
		h2.6V23h-2.6V12.1z"/>
	<path d="M82.7,19.9c0-1.9,1.5-3.1,4.1-3.2l2.9-0.2v-0.8c0-1.1-0.8-1.8-2-1.8c-1.2,0-2,0.6-2.1,1.5h-2.4c0.1-2,1.8-3.5,4.6-3.5
		c2.7,0,4.4,1.4,4.4,3.6V23h-2.5v-1.7h-0.1c-0.6,1.2-2,1.9-3.4,1.9C84.2,23.2,82.7,21.9,82.7,19.9z M89.7,19v-0.8l-2.5,0.2
		c-1.2,0.1-1.9,0.6-1.9,1.5c0,0.9,0.7,1.5,1.8,1.5C88.5,21.2,89.7,20.3,89.7,19z"/>
	<path d="M94.2,12.1h2.5V14h0.1c0.6-1.3,1.7-2.1,3.4-2.1c2.4,0,3.8,1.5,3.8,4.1v7h-2.6v-6.5c0-1.5-0.7-2.4-2.2-2.4
		c-1.5,0-2.4,1.1-2.4,2.6V23h-2.6V12.1z"/>
	<path d="M109.9,15.6c0-4.7,2.7-7.6,6.9-7.6c3.4,0,6.1,2.1,6.4,5.3h-2.6c-0.3-1.9-1.9-3.1-3.8-3.1c-2.5,0-4.2,2.1-4.2,5.4
		c0,3.3,1.6,5.4,4.2,5.4c2,0,3.4-1.1,3.8-2.8h2.6c-0.5,3.2-2.9,5.1-6.4,5.1C112.6,23.2,109.9,20.3,109.9,15.6z"/>
	<path d="M125,8.2h2.6V23H125V8.2z"/>
	<path d="M129.3,17.6c0-3.5,2.1-5.7,5.3-5.7c3.2,0,5.3,2.1,5.3,5.7c0,3.5-2.1,5.6-5.3,5.6C131.3,23.2,129.3,21.1,129.3,17.6z
		 M137.2,17.6c0-2.3-1-3.6-2.7-3.6c-1.6,0-2.7,1.3-2.7,3.6c0,2.3,1,3.6,2.7,3.6C136.1,21.2,137.2,19.9,137.2,17.6z"/>
	<path d="M151.1,23h-2.5v-1.9h-0.1c-0.6,1.3-1.7,2.1-3.3,2.1c-2.4,0-3.9-1.5-3.9-4v-7h2.6v6.5c0,1.6,0.8,2.4,2.2,2.4
		c1.5,0,2.4-1,2.4-2.6v-6.3h2.6V23z"/>
	<path d="M152.7,17.6c0-3.4,1.8-5.6,4.5-5.6c1.6,0,2.8,0.8,3.4,2h0.1V8.2h2.6V23h-2.5v-1.9h0c-0.6,1.2-1.8,2-3.4,2
		C154.5,23.2,152.7,21,152.7,17.6z M155.3,17.6c0,2.2,1,3.5,2.7,3.5c1.6,0,2.7-1.4,2.7-3.5c0-2.1-1.1-3.5-2.7-3.5
		C156.3,14,155.3,15.4,155.3,17.6z"/>
</g>
</svg>
