<?xml version="1.0" encoding="utf-8"?>
<!-- Generator: Adobe Illustrator 25.2.1, SVG Export Plug-In . SVG Version: 6.00 Build 0)  -->
<svg version="1.1" id="图层_1" xmlns="http://www.w3.org/2000/svg" xmlns:xlink="http://www.w3.org/1999/xlink" x="0px" y="0px"
	 viewBox="0 0 166.6 31" style="enable-background:new 0 0 166.6 31;" xml:space="preserve">
<style type="text/css">
	.st0{fill:url(#rect955_1_);}
	.st1{font-family:'SFProDisplay-Semibold';}
	.st2{font-size:21px;}
</style>
<sodipodi:namedview  bordercolor="#666666" borderopacity="1.0" gridtolerance="1" guidetolerance="1" id="base" objecttolerance="1" pagecolor="#ffffff" showgrid="false" showguides="false" units="px">
	</sodipodi:namedview>
<g id="_x23_ffffffff" transform="translate(0,-1089)">
</g>
<g id="_x23_2acbffff-4" transform="matrix(0.74035173,0,0,0.75447038,-840.95699,-775.15387)">
</g>
<linearGradient id="rect955_1_" gradientUnits="userSpaceOnUse" x1="4739.1777" y1="-6400.1333" x2="4430.689" y2="-6395.8784" gradientTransform="matrix(9.675676e-02 0 0 -9.675676e-02 -426.0591 -604.9448)">
	<stop  offset="0" style="stop-color:#3E82F4"/>
	<stop  offset="1" style="stop-color:#93DCF7"/>
</linearGradient>
<path id="rect955" class="st0" d="M19.7,4.5c-2.9,0-5.6,1.6-7,4.1c-0.6-0.3-1.3-0.4-1.9-0.4c-2.2,0-4,1.6-4.4,3.7
	c-2.3,0.9-3.7,3.2-3.7,5.6c0,3.4,2.7,6.1,6.1,6.1c0.3,0,0.5,0,0.8-0.1h16.9c0.1,0,0.2,0,0.3,0c0.1,0,0.2,0,0.3,0h0.4v0
	c2.9-0.3,5-2.8,5-5.7v0c0-2.7-1.9-5.1-4.6-5.6C27.6,7.9,24,4.5,19.7,4.5z"/>
<text transform="matrix(1 0 0 1 34.2455 22.9997)" class="st1 st2">Martian Cloud</text>
</svg>
