<?xml version="1.0" encoding="utf-8"?>
<!-- Generator: Adobe Illustrator 25.2.1, SVG Export Plug-In . SVG Version: 6.00 Build 0)  -->
<svg version="1.1"
	 id="svg2" sodipodi:docname="CloudFlare logo.svg" sodipodi:version="0.32" xmlns:cc="http://creativecommons.org/ns#" xmlns:dc="http://purl.org/dc/elements/1.1/" xmlns:inkscape="http://www.inkscape.org/namespaces/inkscape" xmlns:rdf="http://www.w3.org/1999/02/22-rdf-syntax-ns#" xmlns:sodipodi="http://sodipodi.sourceforge.net/DTD/sodipodi-0.dtd" xmlns:svg="http://www.w3.org/2000/svg"
	 xmlns="http://www.w3.org/2000/svg" xmlns:xlink="http://www.w3.org/1999/xlink" x="0px" y="0px" viewBox="0 0 536.4 65"
	 style="enable-background:new 0 0 536.4 65;" xml:space="preserve">
<style type="text/css">
	.st0{fill:url(#rect955_1_);}
	.st1{fill:#1D1D1F;}
</style>
<sodipodi:namedview  bordercolor="#666666" borderopacity="1.0" gridtolerance="1" guidetolerance="1" id="base" inkscape:current-layer="svg2" inkscape:cx="75.838607" inkscape:cy="36.711673" inkscape:pageopacity="0" inkscape:pageshadow="2" inkscape:showpageshadow="false" inkscape:window-height="705" inkscape:window-maximized="1" inkscape:window-width="1366" inkscape:window-x="-8" inkscape:window-y="-8" inkscape:zoom="1" objecttolerance="1" pagecolor="#ffffff" showgrid="false" showguides="false" units="px">
	</sodipodi:namedview>
<g id="_x23_ffffffff" transform="translate(0,-1089)">
</g>
<g id="_x23_2acbffff-4" transform="matrix(0.74035173,0,0,0.75447038,-840.95699,-775.15387)">
</g>
<linearGradient id="rect955_1_" gradientUnits="userSpaceOnUse" x1="5391.5083" y1="-6407.1655" x2="4363.2134" y2="-6392.9819" gradientTransform="matrix(9.675676e-02 0 0 -9.675676e-02 -421.288 -586.2999)">
	<stop  offset="0" style="stop-color:#3E82F4"/>
	<stop  offset="1" style="stop-color:#93DCF7"/>
</linearGradient>
<path id="rect955" inkscape:connector-curvature="0" class="st0" d="M57.6,0.9c-9.7,0-18.7,5.3-23.4,13.8c-2-1-4.2-1.5-6.4-1.5
	c-7.2,0-13.4,5.3-14.5,12.4C5.7,28.8,0.8,36.2,0.8,44.4c0,11.2,9.1,20.3,20.3,20.3c0.9,0,1.7-0.1,2.5-0.2h56.5c0.3,0,0.6,0,0.9,0
	c0.3,0,0.6,0,0.8,0h1.4v-0.1c9.5-1.1,16.7-9.2,16.7-18.9v0c0-9.1-6.5-16.9-15.4-18.6C84,12.4,72.1,0.9,57.6,0.9z"/>
<g>
	<path class="st1" d="M161.4,63.3v-36h-0.2l-14.7,35.6h-6.2l-14.7-35.6h-0.2v36h-8.2V12.6h10.5l15.5,38.3h0.3l15.5-38.3h10.5v50.7
		H161.4z"/>
	<path class="st1" d="M175.3,52.7c0-6.6,5.1-10.6,14.2-11.1l9.8-0.6v-2.7c0-3.9-2.6-6.2-7-6.2c-4.1,0-6.8,2-7.3,5.1h-8.1
		c0.4-7,6.3-12,15.8-12c9.2,0,15.3,4.9,15.3,12.4v25.7h-8.4v-5.9h-0.2c-2.1,4-6.8,6.5-11.6,6.5C180.5,63.9,175.3,59.4,175.3,52.7z
		 M199.3,49.5v-2.8l-8.6,0.5c-4.2,0.3-6.6,2.2-6.6,5.1c0,3.1,2.5,5,6.3,5C195.3,57.3,199.3,54,199.3,49.5z"/>
	<path class="st1" d="M226.1,17.3v8.7h7v6.8h-7v19.4c0,3.1,1.4,4.5,4.5,4.5c0.8,0,1.9-0.1,2.5-0.2v6.7c-0.9,0.2-2.7,0.4-4.5,0.4
		c-8.1,0-11.2-2.8-11.2-10.1V32.8H212v-6.8h5.3v-8.7H226.1z"/>
	<path class="st1" d="M238.8,16.4c0-2.7,2.1-4.8,4.9-4.8c2.7,0,4.9,2.1,4.9,4.8c0,2.6-2.1,4.7-4.9,4.7
		C241,21.2,238.8,19.1,238.8,16.4z M239.3,26.1h8.8v37.3h-8.8V26.1z"/>
	<path class="st1" d="M253.9,52.7c0-6.6,5.1-10.6,14.2-11.1L278,41v-2.7c0-3.9-2.6-6.2-7-6.2c-4.1,0-6.8,2-7.3,5.1h-8.1
		c0.4-7,6.3-12,15.8-12c9.2,0,15.3,4.9,15.3,12.4v25.7h-8.4v-5.9H278c-2.1,4-6.8,6.5-11.6,6.5C259.2,63.9,253.9,59.4,253.9,52.7z
		 M278,49.5v-2.8l-8.6,0.5c-4.2,0.3-6.6,2.2-6.6,5.1c0,3.1,2.5,5,6.3,5C274,57.3,278,54,278,49.5z"/>
	<path class="st1" d="M293.6,26.1h8.4v6.4h0.2c2-4.4,6-7.1,11.7-7.1c8.2,0,12.9,5.3,12.9,13.9v24.1h-8.8V41c0-5.3-2.5-8.2-7.5-8.2
		c-5,0-8.2,3.6-8.2,9v21.6h-8.8V26.1z"/>
	<path class="st1" d="M347.4,37.9c0-16.2,9.2-26.2,23.6-26.2c11.8,0,20.7,7.3,21.9,18.2h-8.9c-1.2-6.4-6.4-10.5-12.9-10.5
		c-8.7,0-14.3,7.2-14.3,18.5c0,11.4,5.6,18.5,14.3,18.5c6.7,0,11.5-3.6,12.9-9.7h8.9c-1.6,10.9-9.9,17.4-21.9,17.4
		C356.5,64.2,347.4,54.2,347.4,37.9z"/>
	<path class="st1" d="M399.1,12.6h8.8v50.7h-8.8V12.6z"/>
	<path class="st1" d="M413.7,44.7c0-12,7.2-19.4,18-19.4s18,7.3,18,19.4c0,12.1-7.1,19.4-18,19.4S413.7,56.8,413.7,44.7z
		 M440.9,44.7c0-7.9-3.6-12.4-9.1-12.4c-5.5,0-9.1,4.5-9.1,12.4c0,7.9,3.6,12.4,9.1,12.4S440.9,52.6,440.9,44.7z"/>
	<path class="st1" d="M488.5,63.3H480v-6.5h-0.2c-2,4.5-5.7,7.1-11.4,7.1c-8.1,0-13.2-5.2-13.2-13.9V26.1h8.8v22.3
		c0,5.3,2.6,8.2,7.5,8.2c5.1,0,8.2-3.6,8.2-9V26.1h8.8V63.3z"/>
	<path class="st1" d="M494.1,44.7c0-11.8,6.1-19.2,15.5-19.2c5.3,0,9.6,2.8,11.5,6.9h0.2V12.6h8.8v50.7h-8.6V57h-0.1
		c-2,4.2-6.3,7-11.8,7C500.1,63.9,494.1,56.5,494.1,44.7z M503,44.7c0,7.4,3.5,12.1,9.1,12.1c5.5,0,9.1-4.7,9.1-12.1
		c0-7.3-3.6-12.1-9.1-12.1C506.5,32.6,503,37.3,503,44.7z"/>
</g>
</svg>
