<?xml version="1.0" encoding="utf-8"?>
<!-- Generator: Adobe Illustrator 28.2.0, SVG Export Plug-In . SVG Version: 6.00 Build 0)  -->
<svg version="1.1"
	 id="svg2" xmlns:cc="http://creativecommons.org/ns#" xmlns:sodipodi="http://sodipodi.sourceforge.net/DTD/sodipodi-0.dtd" xmlns:svg="http://www.w3.org/2000/svg" xmlns:inkscape="http://www.inkscape.org/namespaces/inkscape" xmlns:rdf="http://www.w3.org/1999/02/22-rdf-syntax-ns#" xmlns:dc="http://purl.org/dc/elements/1.1/"
	 xmlns="http://www.w3.org/2000/svg" xmlns:xlink="http://www.w3.org/1999/xlink" x="0px" y="0px" viewBox="0 0 572 65"
	 style="enable-background:new 0 0 572 65;" xml:space="preserve">
<style type="text/css">
	.st0{enable-background:new    ;}
	.st1{fill:#848587;}
	.st2{fill:url(#rect955_00000044156633339537222980000011891932493575581886_);}
</style>
<sodipodi:namedview  bordercolor="#666666" borderopacity="1.0" gridtolerance="1" guidetolerance="1" id="base" inkscape:current-layer="svg2" inkscape:cx="75.838607" inkscape:cy="36.711673" inkscape:pageopacity="0" inkscape:pageshadow="2" inkscape:showpageshadow="false" inkscape:window-height="705" inkscape:window-maximized="1" inkscape:window-width="1366" inkscape:window-x="-8" inkscape:window-y="-8" inkscape:zoom="1" objecttolerance="1" pagecolor="#ffffff" showgrid="false" showguides="false" units="px">
	</sodipodi:namedview>
<g id="_x23_ffffffff" transform="translate(0,-1089)">
</g>
<g id="_x23_2acbffff-4" transform="matrix(0.74035173,0,0,0.75447038,-840.95699,-775.15387)">
</g>
<g class="st0">
	<path class="st1" d="M170.6,63.9h-9.5V29.7h-0.3l-13.8,33.8h-6.7l-13.8-33.8h-0.3v34.2h-9.5V13.2h12.3l14.4,36h0.3l14.4-36h12.3
		V63.9z"/>
	<path class="st1" d="M188.5,64.5c-3.6,0-6.6-1.1-9-3.2s-3.6-4.9-3.6-8.2c0-3.4,1.3-6.1,3.8-8.1s6.2-3.1,10.9-3.3l9.5-0.6v-2.5
		c0-1.7-0.6-3.1-1.7-4.1c-1.1-1-2.7-1.5-4.6-1.5c-1.9,0-3.4,0.4-4.6,1.3c-1.2,0.8-1.9,2-2.2,3.4h-9.4c0.2-3.7,1.8-6.7,4.7-8.9
		c3-2.3,6.9-3.4,11.8-3.4c4.8,0,8.7,1.1,11.6,3.4c2.9,2.3,4.4,5.3,4.4,9.1v25.9h-9.9v-5.8H200c-1,2-2.6,3.5-4.7,4.7
		S191,64.5,188.5,64.5z M191.9,57.1c2.3,0,4.2-0.7,5.8-2s2.4-3,2.4-5v-2.7l-7.9,0.5c-1.9,0.1-3.4,0.6-4.4,1.4
		c-1,0.8-1.6,1.9-1.6,3.2c0,1.4,0.5,2.5,1.6,3.3S190.2,57.1,191.9,57.1z"/>
	<path class="st1" d="M216.8,63.9V26.2h9.9V33h0.2c0.7-2.4,1.8-4.2,3.3-5.5s3.4-1.9,5.7-1.9c1.1,0,2.1,0.1,2.9,0.4v9
		c-1-0.4-2.2-0.6-3.7-0.6c-2.5,0-4.5,0.7-5.9,2.2s-2.1,3.5-2.1,6.2v21.1H216.8z"/>
	<path class="st1" d="M245.7,17.6H256v8.7h7V34h-7v18c0,2.8,1.5,4.3,4.4,4.3c1,0,1.8-0.1,2.5-0.2v7.6c-1.2,0.3-2.8,0.4-4.9,0.4
		c-4.4,0-7.6-0.8-9.5-2.4c-1.9-1.6-2.8-4.2-2.8-7.9V34h-5.3v-7.7h5.3V17.6z"/>
	<path class="st1" d="M277.8,20.5c-1.1,1-2.4,1.5-3.9,1.5s-2.8-0.5-3.9-1.5s-1.6-2.3-1.6-3.8c0-1.5,0.5-2.8,1.6-3.8s2.4-1.5,3.9-1.5
		s2.8,0.5,3.9,1.5s1.6,2.3,1.6,3.8C279.4,18.3,278.8,19.5,277.8,20.5z M268.7,63.9V26.2H279v37.7H268.7z"/>
	<path class="st1" d="M297,64.5c-3.6,0-6.6-1.1-9-3.2c-2.4-2.1-3.6-4.9-3.6-8.2c0-3.4,1.3-6.1,3.8-8.1c2.5-1.9,6.2-3.1,10.9-3.3
		l9.5-0.6v-2.5c0-1.7-0.6-3.1-1.7-4.1s-2.7-1.5-4.6-1.5c-1.9,0-3.4,0.4-4.6,1.3s-1.9,2-2.2,3.4h-9.4c0.2-3.7,1.8-6.7,4.7-8.9
		s6.9-3.4,11.8-3.4c4.8,0,8.7,1.1,11.6,3.4s4.4,5.3,4.4,9.1v25.9h-9.9v-5.8h-0.2c-1,2-2.6,3.5-4.7,4.7S299.4,64.5,297,64.5z
		 M300.4,57.1c2.3,0,4.2-0.7,5.8-2s2.4-3,2.4-5v-2.7l-7.9,0.5c-1.9,0.1-3.4,0.6-4.4,1.4s-1.6,1.9-1.6,3.2c0,1.4,0.5,2.5,1.6,3.3
		S298.6,57.1,300.4,57.1z"/>
	<path class="st1" d="M325.2,63.9V26.2h9.9v6.7h0.2c1-2.4,2.5-4.2,4.5-5.5s4.4-1.9,7.3-1.9c4.2,0,7.4,1.2,9.7,3.7s3.4,5.9,3.4,10.4
		v24.3H350V41.8c0-2.5-0.6-4.4-1.8-5.7s-2.9-2-5.2-2s-4.1,0.8-5.5,2.3s-2.1,3.5-2.1,6v21.6H325.2z"/>
	<path class="st1" d="M404.3,64.8c-7.4,0-13.3-2.3-17.6-7s-6.5-11.1-6.5-19.2c0-8.1,2.2-14.5,6.5-19.2s10.2-7,17.5-7
		c4,0,7.7,0.8,11,2.4s5.9,3.8,7.9,6.8s3.1,6.2,3.4,9.9h-10.3c-0.5-3.1-1.8-5.6-4-7.5s-4.8-2.8-7.9-2.8c-4,0-7.2,1.6-9.6,4.7
		s-3.6,7.4-3.6,12.7c0,5.4,1.2,9.7,3.6,12.8s5.6,4.7,9.7,4.7c3.1,0,5.8-0.9,7.9-2.6s3.5-4.1,4-7.1h10.3c-0.6,5.6-2.9,10.1-6.9,13.5
		S410.5,64.8,404.3,64.8z"/>
	<path class="st1" d="M432.5,63.9V13.2h10.3v50.7H432.5z"/>
	<path class="st1" d="M480.6,59.5c-3.4,3.5-7.9,5.2-13.6,5.2s-10.3-1.7-13.6-5.2s-5-8.3-5-14.4c0-6.1,1.7-10.9,5.1-14.4
		s7.9-5.3,13.6-5.3c5.7,0,10.2,1.8,13.6,5.3s5.1,8.3,5.1,14.4C485.7,51.2,484,56,480.6,59.5z M467,56.9c2.5,0,4.5-1,6-3.1
		s2.2-5,2.2-8.7c0-3.7-0.7-6.6-2.2-8.7s-3.5-3.1-6-3.1s-4.5,1-6,3.1s-2.2,5-2.2,8.7c0,3.8,0.7,6.7,2.2,8.7S464.4,56.9,467,56.9z"/>
	<path class="st1" d="M525.7,26.2v37.7h-9.9v-6.8h-0.2c-2,5-5.7,7.5-11.3,7.5c-4.1,0-7.4-1.3-9.9-3.8s-3.7-6-3.7-10.3V26.2H501v22.1
		c0,2.5,0.6,4.4,1.8,5.7s2.9,2,5.2,2s4.1-0.8,5.4-2.2s2-3.5,2-6V26.2H525.7z"/>
	<path class="st1" d="M546.4,64.5c-4.7,0-8.4-1.7-11.2-5.2S531,51,531,45c0-6,1.4-10.7,4.2-14.2s6.5-5.2,11.3-5.2c2.7,0,5,0.6,7,1.9
		s3.5,3,4.4,5.1h0.2V13.2h10.3v50.7h-10.1v-6.5h-0.2c-0.9,2.1-2.4,3.8-4.5,5.1S549.1,64.5,546.4,64.5z M549.9,33.9
		c-2.6,0-4.6,1-6.1,3s-2.2,4.7-2.2,8.2c0,3.5,0.7,6.2,2.2,8.2s3.5,3,6.1,3c2.6,0,4.6-1,6.1-3s2.3-4.7,2.3-8.2c0-3.4-0.8-6.1-2.3-8.2
		S552.4,33.9,549.9,33.9z"/>
</g>
<sodipodi:namedview  bordercolor="#666666" borderopacity="1.0" gridtolerance="1" guidetolerance="1" id="base" inkscape:current-layer="svg2" inkscape:cx="75.838607" inkscape:cy="36.711673" inkscape:pageopacity="0" inkscape:pageshadow="2" inkscape:showpageshadow="false" inkscape:window-height="705" inkscape:window-maximized="1" inkscape:window-width="1366" inkscape:window-x="-8" inkscape:window-y="-8" inkscape:zoom="1" objecttolerance="1" pagecolor="#ffffff" showgrid="false" showguides="false" units="px">
	</sodipodi:namedview>
<g id="_x23_ffffffff_00000124143472964668529100000014953003346510482600_" transform="translate(0,-1089)">
</g>
<g id="_x23_2acbffff-4_00000101087363634541979730000004369133299787165864_" transform="matrix(0.74035173,0,0,0.75447038,-840.95699,-775.15387)">
</g>
<linearGradient id="rect955_00000114795760100660561280000006314882903948816020_" gradientUnits="userSpaceOnUse" x1="6188.5864" y1="-6665.499" x2="5160.2915" y2="-6651.3154" gradientTransform="matrix(9.675676e-02 0 0 -9.675676e-02 -497.4153 -611.5907)">
	<stop  offset="0" style="stop-color:#3E82F4"/>
	<stop  offset="1" style="stop-color:#93DCF7"/>
</linearGradient>
<path id="rect955" inkscape:connector-curvature="0" style="fill:url(#rect955_00000114795760100660561280000006314882903948816020_);" d="
	M58.6,0.6c-9.7,0-18.7,5.3-23.4,13.8c-2-1-4.2-1.5-6.4-1.5c-7.2,0-13.4,5.3-14.5,12.4C6.7,28.5,1.8,35.9,1.8,44.1
	c0,11.2,9.1,20.3,20.3,20.3c0.9,0,1.7-0.1,2.5-0.2h56.5c0.3,0,0.6,0,0.9,0c0.3,0,0.6,0,0.8,0h1.4v-0.1c9.5-1.1,16.7-9.2,16.7-18.9v0
	c0-9.1-6.5-16.9-15.4-18.6C85,12.1,73.1,0.6,58.6,0.6z"/>
</svg>
